<svg width="53" height="28" viewBox="0 0 53 28" fill="none" xmlns="http://www.w3.org/2000/svg">
<path d="M0.304718 -2.14577e-06H1.45672V14.148C1.96072 13.068 2.81272 12.18 4.01272 11.484C5.23672 10.764 6.47272 10.404 7.72072 10.404C10.0007 10.404 11.7527 11.028 12.9767 12.276C14.2247 13.524 14.8487 15.288 14.8487 17.568V27H13.6967V17.568C13.6967 15.6 13.1687 14.088 12.1127 13.032C11.0807 11.952 9.61672 11.412 7.72072 11.412C6.56872 11.412 5.51272 11.688 4.55272 12.24C3.59272 12.768 2.83672 13.512 2.28472 14.472C1.73272 15.408 1.45672 16.44 1.45672 17.568V27H0.304718V-2.14577e-06ZM21.6986 7.092C21.3626 7.092 21.0626 6.972 20.7986 6.732C20.5586 6.492 20.4386 6.192 20.4386 5.832C20.4386 5.496 20.5586 5.208 20.7986 4.968C21.0626 4.728 21.3626 4.608 21.6986 4.608C22.0346 4.608 22.3226 4.728 22.5626 4.968C22.8266 5.208 22.9586 5.496 22.9586 5.832C22.9586 6.192 22.8266 6.492 22.5626 6.732C22.3226 6.972 22.0346 7.092 21.6986 7.092ZM21.1226 10.8H22.2746V27H21.1226V10.8ZM34.3382 27.216C32.5622 27.216 31.0862 26.676 29.9102 25.596C28.7582 24.516 28.1822 23.028 28.1822 21.132V4.284H29.3342V10.8H34.3022V11.808H29.3342V21.132C29.3342 22.716 29.8022 23.964 30.7382 24.876C31.6982 25.764 32.8982 26.208 34.3382 26.208V27.216ZM46.1504 26.424C47.3984 26.424 48.5864 26.1 49.7144 25.452C50.8424 24.804 51.7784 23.916 52.5224 22.788V24.624C51.6344 25.608 50.6624 26.328 49.6064 26.784C48.5504 27.216 47.3504 27.432 46.0064 27.432C44.5184 27.432 43.1144 27.036 41.7944 26.244C40.4984 25.452 39.4544 24.396 38.6624 23.076C37.8944 21.756 37.5104 20.352 37.5104 18.864C37.5104 17.256 37.8944 15.816 38.6624 14.544C39.4304 13.248 40.4744 12.24 41.7944 11.52C43.1384 10.8 44.6264 10.44 46.2584 10.44C48.7544 10.44 50.8784 11.424 52.6304 13.392L41.3264 24.552C42.1184 25.2 42.8864 25.68 43.6304 25.992C44.3744 26.28 45.2144 26.424 46.1504 26.424ZM38.6624 18.756C38.6624 20.748 39.3224 22.452 40.6424 23.868L51.1904 13.392C50.3984 12.696 49.6304 12.204 48.8864 11.916C48.1424 11.604 47.2544 11.448 46.2224 11.448C44.7584 11.448 43.4504 11.772 42.2984 12.42C41.1704 13.044 40.2824 13.908 39.6344 15.012C38.9864 16.116 38.6624 17.364 38.6624 18.756Z" fill="#344854"/>
</svg>
