<svg width="22" height="22" viewBox="0 0 22 22" fill="none" xmlns="http://www.w3.org/2000/svg">
<path d="M11 15C13.2091 15 15 13.2091 15 11C15 8.79086 13.2091 7 11 7C8.79086 7 7 8.79086 7 11C7 13.2091 8.79086 15 11 15Z" stroke="#82B5D1" stroke-width="2" stroke-linecap="round" stroke-linejoin="round"/>
<path d="M15 7.00011V12.0001C15 12.7958 15.3161 13.5588 15.8787 14.1214C16.4413 14.684 17.2044 15.0001 18 15.0001C18.7957 15.0001 19.5587 14.684 20.1213 14.1214C20.6839 13.5588 21 12.7958 21 12.0001V11.0001C20.9999 8.74314 20.2362 6.55259 18.8333 4.78464C17.4303 3.0167 15.4706 1.77534 13.2726 1.26241C11.0747 0.749482 8.76794 0.995154 6.72736 1.95948C4.68677 2.9238 3.03241 4.55007 2.03327 6.57383C1.03413 8.5976 0.748975 10.8998 1.22418 13.1062C1.69938 15.3126 2.90699 17.2933 4.65064 18.7264C6.39429 20.1594 8.57144 20.9605 10.8281 20.9993C13.0847 21.0381 15.2881 20.3124 17.08 18.9401" stroke="#82B5D1" stroke-width="2" stroke-linecap="round" stroke-linejoin="round"/>
</svg>
