<svg width="50" height="50" viewBox="0 0 50 50" fill="none" xmlns="http://www.w3.org/2000/svg">
<path fill-rule="evenodd" clip-rule="evenodd" d="M25 1.5C12.0213 1.5 1.5 12.0213 1.5 25C1.5 37.9787 12.0213 48.5 25 48.5C37.9787 48.5 48.5 37.9787 48.5 25C48.5 12.0213 37.9787 1.5 25 1.5ZM0.5 25C0.5 11.469 11.469 0.5 25 0.5C38.531 0.5 49.5 11.469 49.5 25C49.5 38.531 38.531 49.5 25 49.5C11.469 49.5 0.5 38.531 0.5 25ZM27.5043 20.5546L27.5077 19.3025C27.5077 18.1289 27.6192 17.5001 29.3048 17.5001H30.5581H31.5581V16.5001V14V13H30.5581H27.9532C23.6231 13 22.0991 15.1828 22.0991 18.8536V20.5551V21.5551H21.0991H20.4H19.4V22.5551V25.0547V26.0547H20.4H21.0991H22.0991V27.0547V38.1115V39.1115H23.0991H26.5016H27.5016V38.1115V27.0542V26.0542H28.5016H31.1059L31.4774 22.5546L31.5836 21.5546H30.578H28.5016H27.5016L27.5043 20.5546ZM30.4718 22.5546H27.5016H26.4988L26.5016 21.5519L26.5077 19.3025C26.5077 19.3021 26.5077 19.3016 26.5077 19.3012C26.5077 19.0059 26.5135 18.6751 26.5647 18.3637C26.6172 18.0438 26.7276 17.6748 26.9876 17.3437C27.5313 16.651 28.4106 16.5001 29.3048 16.5001H30.5581V14H27.9532C25.9434 14 24.8014 14.5051 24.139 15.2265C23.4609 15.9651 23.0991 17.1301 23.0991 18.8536V21.5551V22.5551H22.0991H20.4V25.0547H22.0991H23.0991V26.0547V38.1115H26.5016V26.0542V25.0542H27.5016H30.2065L30.4718 22.5546Z" fill="#82B5D1"/>
</svg>
