<svg width="50" height="50" viewBox="0 0 50 50" fill="none" xmlns="http://www.w3.org/2000/svg">
<path fill-rule="evenodd" clip-rule="evenodd" d="M1.5 25.3999C1.5 12.4212 12.0213 1.8999 25 1.8999C37.9787 1.8999 48.5 12.4212 48.5 25.3999C48.5 38.3786 37.9787 48.8999 25 48.8999C12.0213 48.8999 1.5 38.3786 1.5 25.3999ZM25 0.899902C11.469 0.899902 0.5 11.8689 0.5 25.3999C0.5 38.9309 11.469 49.8999 25 49.8999C38.531 49.8999 49.5 38.9309 49.5 25.3999C49.5 11.8689 38.531 0.899902 25 0.899902ZM26.9541 32.9761C26.7175 33.2256 26.2555 33.276 26.2555 33.276H24.7254C24.7254 33.276 21.3497 33.4751 18.376 30.4368C15.1331 27.1221 12.2695 20.5454 12.2695 20.5454C12.2695 20.5454 12.1043 20.114 12.2833 19.9063C12.4849 19.6716 13.0346 19.6568 13.0346 19.6568L16.6919 19.6335C16.6919 19.6335 17.0363 19.6888 17.2829 19.867C17.487 20.0145 17.601 20.2885 17.601 20.2885C17.601 20.2885 18.192 21.756 18.9745 23.0834C20.5033 25.6755 21.2145 26.2421 21.7329 25.9643C22.4892 25.56 22.2625 22.3005 22.2625 22.3005C22.2625 22.3005 22.2763 21.1182 21.8819 20.5909C21.5764 20.1828 21.0004 20.0636 20.7462 20.0304C20.5396 20.0034 20.8777 19.5339 21.3159 19.3237C21.9745 19.0079 23.1365 18.9894 24.51 19.003C25.5806 19.014 25.8886 19.0792 26.3068 19.1787C27.2774 19.4086 27.2471 20.1454 27.1817 21.7356C27.1621 22.2111 27.1394 22.763 27.1394 23.4005C27.1394 23.5438 27.1352 23.6965 27.1308 23.8536C27.1081 24.6682 27.0821 25.6011 27.629 25.9483C27.9095 26.1253 28.5944 25.9741 30.3085 23.1178C31.1211 21.7634 31.7296 20.1718 31.7296 20.1718C31.7296 20.1718 31.8636 19.8879 32.0702 19.7662C32.2818 19.6421 32.5673 19.6802 32.5673 19.6802L36.4162 19.6568C36.4162 19.6568 37.5732 19.5204 37.7597 20.0341C37.9563 20.5712 37.3278 21.8273 35.7551 23.8848C34.2633 25.837 33.5374 26.5557 33.604 27.1914C33.6527 27.6559 34.1246 28.076 35.0302 28.9005C36.9206 30.6233 37.4273 31.5298 37.549 31.7475C37.5591 31.7656 37.5665 31.7789 37.5719 31.7876C38.4196 33.1678 36.6316 33.276 36.6316 33.276L33.2121 33.3227C33.2121 33.3227 32.4784 33.4652 31.5118 32.8138C31.0054 32.4729 30.5106 31.9161 30.0393 31.3857C29.3196 30.5757 28.6548 29.8275 28.0873 30.0042C27.1344 30.3016 27.1632 32.3161 27.1632 32.3161C27.1632 32.3161 27.1707 32.7475 26.9541 32.9761Z" fill="#82B5D1"/>
</svg>
